<?xml version="1.0" encoding="UTF-8" standalone="no"?>
<!-- Created with Inkscape (http://www.inkscape.org/) -->

<svg
   xmlns:dc="http://purl.org/dc/elements/1.1/"
   xmlns:cc="http://creativecommons.org/ns#"
   xmlns:rdf="http://www.w3.org/1999/02/22-rdf-syntax-ns#"
   xmlns:svg="http://www.w3.org/2000/svg"
   xmlns="http://www.w3.org/2000/svg"
   version="1.1"
   width="6.6658301in"
   height="6.6658301in"
   viewBox="0 0 480 480"
   id="svg2">
  <metadata
     id="metadata9">
    <rdf:RDF>
      <cc:Work
         rdf:about="">
        <dc:format>image/svg+xml</dc:format>
        <dc:type
           rdf:resource="http://purl.org/dc/dcmitype/StillImage" />
        <dc:title></dc:title>
      </cc:Work>
    </rdf:RDF>
  </metadata>
  <defs
     id="defs7" />
  <path
     d="m 75,195.82 c 9.41,-5.26 18.95,-10.53 29,-14.56 0,0 10,-3.46 10,-3.46 0,0 15,-6.05 15,-6.05 0,0 23.87,-6.4 23.87,-6.4 4.71,-2.41 10.72,-15.52 13.98,-20.35 8.09,-12 18.98,-22.05 29.23,-32.17 8.9,-8.78 19.12,-24.41 24.21,-35.83 1.38,-3.1 3.91,-12.26 8.46,-11.34 3.92,0.8 7.98,9.86 9.15,13.34 3.68,11.01 0.54,35.99 3.1,45 0,0 6.63,-11 6.63,-11 0,0 5.71,-12 5.71,-12 0,0 9.66,-29 9.66,-29 4.12,4.6 4.45,8.22 5.99,14 3.55,13.37 3.03,29.21 3.01,43 -0.01,4.75 -0.75,18.14 -3.72,21.57 -1.56,1.81 -4.13,2.56 -6.28,3.43 8.4,0.39 16.9,3.81 25,6.13 0,0 10,2.54 10,2.54 0,0 16,6.09 16,6.09 0,0 8,2.34 8,2.34 0,0 12,5.31 12,5.31 5.52,2.66 15.7,5.65 19.71,9.52 2.25,2.16 3.89,11.79 5.72,16.07 3.38,7.91 8.64,13.95 14.66,19.98 7.48,7.49 16.5,13.47 24.91,19.85 5.34,4.05 9.86,5.8 13,12.17 -20.79,-4.18 -42.21,-14.08 -57.83,-28.46 -3.01,-2.77 -9.25,-10.07 -11.46,-13.55 -1.6,-2.52 -6.39,-10.83 -8.1,-12.29 -1.94,-1.67 -8.85,-4.23 -11.61,-5.42 -7.8,-3.36 -26.82,-9.64 -35,-9.83 -4.97,-0.11 -13.14,2.76 -16.91,5.94 -5.05,4.26 -14.88,22.06 -18.12,28.61 -1.47,2.96 -3.6,11.71 -5.48,12.97 -1.77,1.12 -7.96,0.06 -10.49,0 -17.61,-0.17 -23.57,0.22 -41,2.61 -7.05,0.96 -7.49,-0.32 -15,2.42 0,0 29,7 29,7 0,0 0,2 0,2 0,0 -19,2.42 -19,2.42 -16.99,3.09 -34.76,10.01 -46,23.58 0,0 26,-4 26,-4 -1.57,3.7 -3.65,8.1 -4.48,12 -2.99,13.99 2.04,26.51 13.49,35.07 0,0 21.99,11.93 21.99,11.93 0,0 -15,2.74 -15,2.74 -25.69,7.12 -48.77,17.34 -70.17,33.33 -9.45,7.06 -22.52,18.39 -27.83,28.93 0,0 19,-6.51 19,-6.51 3.77,-1.26 6.03,-2.79 10,-1.49 -10.95,3.69 -16.59,9.29 -23.91,18 -7.06,8.4 -5.07,12.98 -17.09,13 0,0 -16,0 -16,0 -2.44,0 -5.37,0.23 -7.56,-0.95 C 46.41,410.78 36.2,393.48 33.41,387 c 0,0 -7.31,-16 -7.31,-16 0,0 -2,-9 -2,-9 -6.58,-27.13 -6.59,-37.67 -1.1,-65 0,0 -20,5 -20,5 0.12,-11.92 6.41,-20.78 11.49,-31 4.18,-8.42 9.04,-18.91 15.64,-25.71 0,0 35.87,-33.29 35.87,-33.29 0,0 -17,3 -17,3 5.16,-7.13 18.13,-14.77 26,-19.18 z M 215.54,110 c 0,0 -7.25,11.83 -7.25,11.83 0,0 -8.32,12.17 -8.32,12.17 0,0 -9.39,25 -9.39,25 0,0 -6.58,20 -6.58,20 0,0 21,-14.66 21,-14.66 7.63,-4.32 10.4,-2.86 13.01,-5.82 2.45,-2.79 3.92,-12.5 4.78,-16.52 2.67,-12.59 6.16,-39.88 3.21,-52 0,0 -10.46,20 -10.46,20 z M 330,219.22 c 5.7,2.45 9.65,7.46 14.17,11.47 2.94,2.6 7.43,5.09 10.83,7.31 -3.7,2.39 -10.56,2.89 -15,2.99 -8.25,0.18 -16.88,-1.32 -23.74,-6.2 -2.88,-2.05 -3.81,-4.85 -6.56,-7.32 -6.1,-5.47 -15.64,-8.29 -23.7,-8.47 0,0 0,-2 0,-2 10.07,0 35.91,-1.25 44,2.22 z M 452,269 c 5.1,5.15 16.84,10.66 24,12 -0.01,8.66 -2.72,17.49 -7.35,24.91 0,0 -4.6,6.18 -4.6,6.18 -7.2,11.54 -15.27,24.88 -27.05,32.35 -9.56,6.07 -21.06,7.17 -32,8.69 -23.15,3.21 -44.77,2.76 -68,2.87 -23.79,0.11 -54.2,8.89 -72,24.84 -8.84,7.92 -15.94,15.78 -16,28.16 0,0 0,6 0,6 0,0 -67,0 -67,0 1.37,-16.25 17.84,-31.93 30,-41.42 4.73,-3.69 7.69,-6.53 13,-9.58 0,0 -20,2.8 -20,2.8 0,0 -18,7.2 -18,7.2 8.56,-12.09 28.33,-23.81 42,-29.31 6.23,-2.5 12.46,-5.28 19,-6.93 0,0 9,-1.22 9,-1.22 19.39,-3.43 26.8,-2.54 46,-2.54 0,0 44,0 44,0 0,0 12,1.1 12,1.1 0,0 12,0 12,0 14.95,0.08 20.75,3.41 37,0 14.96,-2.58 27.3,-9.48 37.2,-21.14 4.84,-5.71 8.03,-9.21 8.62,-16.96 0.9,-11.97 -8.9,-17.3 -16.82,-24 0,0 15,-4 15,-4 z m -311,4 c 0,0 1,1 1,1 0,0 0,-1 0,-1 0,0 -1,0 -1,0 z"
     id="Zaznaczenie"
     style="fill:#00ff00;fill-opacity:1;stroke:none" />
</svg>
